<svg id="Layer_1" data-name="Layer 1" xmlns="http://www.w3.org/2000/svg" viewBox="0 0 202.12 175.97"><defs><style>.cls-1{font-size:144px;font-family:Cinzel-SemiBold, Cinzel;font-weight:600;}</style></defs><text class="cls-1" transform="translate(93.41 122.4)">R</text><path d="M96.17,56.12q-.72,2.73-1.08,4.17c-.23,1-.36,1.49-.36,1.59H92.07c-1.49,0-3.24,0-5.26-.08s-3.93,0-5.76.08A16.6,16.6,0,0,0,69,67.35q-4.75,5.18-5.19,15.26a20.65,20.65,0,0,0,.15,4.18c.19,1.34.38,2.45.57,3.31A21.73,21.73,0,0,0,69.1,100a16.42,16.42,0,0,0,7.13,4.83,28.88,28.88,0,0,0,7.85,1.44,32,32,0,0,0,3.6.07c1.06,0,1.68-.07,1.87-.07v1.44a9.77,9.77,0,0,0-5.9,2.88,27.25,27.25,0,0,0-5,6.77c-.29.67-.84,1.82-1.66,3.45s-1.82,3.48-3,5.55-2.43,4.2-3.68,6.4-2.39,4.2-3.45,6-1.87,3.1-2.45,4a31,31,0,0,1-7.49,7.92,30.39,30.39,0,0,1-10.15,4.75,50.78,50.78,0,0,1-13.32,1.59l-11.95-.48v-1a18.23,18.23,0,0,0,6.91-1.23,19.33,19.33,0,0,0,5.69-3.6,59.89,59.89,0,0,0,5.83-6.12c1.35-1.63,2.9-3.65,4.68-6.05s3.48-4.8,5.11-7.2,3-4.44,4.11-6.12,1.7-2.56,1.8-2.66a46.17,46.17,0,0,1,5.83-7,19.12,19.12,0,0,1,7.41-4.83A23.76,23.76,0,0,1,55.71,106a26.08,26.08,0,0,1-8.06-10.29,30.68,30.68,0,0,1-2.74-12.53A27.25,27.25,0,0,1,47.43,71a22.92,22.92,0,0,1,7-8.42,30.59,30.59,0,0,1,10.3-4.9A46.61,46.61,0,0,1,77,56.12Zm-1.44,100.8H83.36v-1.44h1.73a9,9,0,0,0,6.48-2.67,8.62,8.62,0,0,0,2.73-6.41h.43Zm17.14-100.8v100.8H94.3V56.12Zm-.43,0H123v1.44h-1.87a8.72,8.72,0,0,0-6.41,2.66,9.28,9.28,0,0,0-2.81,6.41h-.43Zm.43,90.28a9.26,9.26,0,0,0,2.81,6.41,8.73,8.73,0,0,0,6.41,2.67H123v1.44H111.44V146.4Z" transform="translate(-21.44 -34.52)"/></svg>