<?xml version="1.0" encoding="UTF-8" standalone="no"?>
<!DOCTYPE svg PUBLIC "-//W3C//DTD SVG 1.1//EN" "http://www.w3.org/Graphics/SVG/1.1/DTD/svg11.dtd">
<svg width="100%" height="100%" viewBox="0 0 428 176" version="1.1" xmlns="http://www.w3.org/2000/svg" xmlns:xlink="http://www.w3.org/1999/xlink" xml:space="preserve" xmlns:serif="http://www.serif.com/" style="fill-rule:evenodd;clip-rule:evenodd;stroke-linejoin:round;stroke-miterlimit:2;">
    <g transform="matrix(1,0,0,1,208.79,122.4)">
        <g transform="matrix(144,0,0,144,0,0)">
            <path d="M0.236,-0.7L0.369,-0.7C0.399,-0.7 0.428,-0.696 0.455,-0.689C0.482,-0.682 0.505,-0.67 0.526,-0.655C0.547,-0.64 0.563,-0.62 0.575,-0.597C0.586,-0.573 0.592,-0.545 0.592,-0.512C0.592,-0.483 0.586,-0.454 0.573,-0.425C0.56,-0.396 0.542,-0.373 0.517,-0.354C0.492,-0.335 0.462,-0.324 0.426,-0.321C0.444,-0.315 0.461,-0.304 0.478,-0.288C0.494,-0.271 0.507,-0.255 0.518,-0.239C0.519,-0.238 0.523,-0.232 0.531,-0.221C0.538,-0.209 0.548,-0.195 0.559,-0.178C0.57,-0.161 0.582,-0.145 0.595,-0.128C0.607,-0.111 0.618,-0.097 0.627,-0.086C0.642,-0.069 0.655,-0.055 0.668,-0.044C0.68,-0.033 0.693,-0.024 0.707,-0.019C0.721,-0.013 0.737,-0.01 0.755,-0.01L0.755,-0L0.672,-0C0.637,-0 0.607,-0.004 0.58,-0.011C0.553,-0.018 0.529,-0.029 0.509,-0.044C0.489,-0.059 0.472,-0.077 0.457,-0.099C0.453,-0.105 0.447,-0.114 0.44,-0.127C0.433,-0.139 0.425,-0.153 0.416,-0.168C0.407,-0.183 0.399,-0.198 0.391,-0.213C0.382,-0.227 0.375,-0.24 0.37,-0.251C0.364,-0.262 0.36,-0.27 0.358,-0.275C0.347,-0.294 0.336,-0.31 0.323,-0.322C0.31,-0.334 0.297,-0.341 0.282,-0.342L0.282,-0.352C0.283,-0.352 0.288,-0.352 0.295,-0.352C0.302,-0.351 0.311,-0.351 0.32,-0.352C0.338,-0.353 0.356,-0.356 0.375,-0.362C0.393,-0.368 0.409,-0.379 0.424,-0.396C0.439,-0.412 0.449,-0.435 0.456,-0.464C0.457,-0.47 0.459,-0.478 0.46,-0.487C0.461,-0.496 0.462,-0.506 0.461,-0.516C0.459,-0.563 0.447,-0.598 0.425,-0.622C0.403,-0.646 0.375,-0.659 0.341,-0.66C0.328,-0.661 0.315,-0.661 0.301,-0.661C0.287,-0.66 0.275,-0.66 0.265,-0.66L0.246,-0.66C0.246,-0.661 0.245,-0.664 0.244,-0.671L0.236,-0.7ZM0.249,-0.7L0.249,-0L0.127,-0L0.127,-0.7L0.249,-0.7ZM0.13,-0.073L0.13,-0L0.05,-0L0.05,-0.01L0.063,-0.01C0.08,-0.01 0.095,-0.016 0.108,-0.029C0.12,-0.041 0.126,-0.056 0.127,-0.073L0.13,-0.073ZM0.13,-0.627L0.127,-0.627C0.126,-0.644 0.12,-0.659 0.108,-0.672C0.095,-0.684 0.08,-0.69 0.063,-0.69L0.05,-0.69L0.05,-0.7L0.13,-0.7L0.13,-0.627ZM0.246,-0.073L0.249,-0.073C0.249,-0.056 0.255,-0.041 0.268,-0.029C0.281,-0.016 0.296,-0.01 0.313,-0.01L0.325,-0.01L0.325,-0L0.246,-0L0.246,-0.073Z" style="fill-rule:nonzero;"/>
        </g>
    </g>
    <g transform="matrix(1,0,0,1,0.1,121.944)">
        <g transform="matrix(96,0,0,96,0,0)">
            <path d="M0.767,-0.714L0.775,-0.619L0.493,-0.09C0.493,-0.09 0.49,-0.084 0.484,-0.073C0.478,-0.061 0.472,-0.047 0.466,-0.03C0.46,-0.013 0.457,0.003 0.456,0.018L0.446,0.018L0.415,-0.061L0.767,-0.714ZM0.11,-0.073L0.11,-0L-0.001,-0L-0.001,-0.01L0.015,-0.01C0.033,-0.01 0.049,-0.016 0.063,-0.027C0.077,-0.038 0.085,-0.053 0.088,-0.073L0.11,-0.073ZM0.149,-0.057L0.149,-0.052C0.149,-0.041 0.153,-0.032 0.161,-0.023C0.168,-0.014 0.177,-0.009 0.188,-0.009L0.203,-0.009L0.203,-0L0.142,-0L0.142,-0.057L0.149,-0.057ZM0.168,-0.714L0.178,-0.714L0.208,-0.627L0.143,-0L0.079,-0L0.168,-0.714ZM0.178,-0.714L0.492,-0.148L0.446,0.018L0.154,-0.519L0.178,-0.714ZM0.776,-0.714L0.868,-0L0.735,-0L0.683,-0.508L0.767,-0.714L0.776,-0.714ZM0.837,-0.073L0.859,-0.073C0.862,-0.053 0.871,-0.038 0.885,-0.027C0.898,-0.016 0.914,-0.01 0.932,-0.01L0.948,-0.01L0.948,-0L0.837,-0L0.837,-0.073ZM0.729,-0.057L0.736,-0.057L0.736,-0L0.675,-0L0.675,-0.009L0.69,-0.009C0.701,-0.009 0.711,-0.014 0.718,-0.023C0.725,-0.032 0.729,-0.041 0.729,-0.052L0.729,-0.057Z" style="fill-rule:nonzero;"/>
        </g>
        <g transform="matrix(96,0,0,96,86.016,0)">
            <path d="M0.232,-0.6L0.232,-0L0.115,-0L0.115,-0.6L0.232,-0.6ZM0.118,-0.063L0.118,-0L0.041,-0L0.041,-0.01L0.054,-0.01C0.071,-0.01 0.085,-0.015 0.097,-0.026C0.109,-0.036 0.115,-0.048 0.115,-0.063L0.118,-0.063ZM0.229,-0.063L0.232,-0.063C0.233,-0.048 0.239,-0.036 0.251,-0.026C0.262,-0.015 0.277,-0.01 0.294,-0.01L0.306,-0.01L0.306,-0L0.229,-0L0.229,-0.063ZM0.229,-0.537L0.229,-0.6L0.306,-0.6L0.305,-0.59L0.294,-0.59C0.277,-0.59 0.262,-0.585 0.251,-0.575C0.239,-0.565 0.233,-0.552 0.232,-0.537L0.229,-0.537ZM0.118,-0.537L0.115,-0.537C0.115,-0.552 0.109,-0.565 0.097,-0.575C0.085,-0.585 0.071,-0.59 0.054,-0.59L0.041,-0.59L0.041,-0.6L0.118,-0.6L0.118,-0.537Z" style="fill-rule:nonzero;"/>
        </g>
    </g>
    <g transform="matrix(1,0,0,1,-27.9,-13.41)">
        <path d="M218,35C217.52,36.83 217.16,38.22 216.92,39.18C216.68,40.14 216.56,40.67 216.56,40.76L213.89,40.76C212.41,40.76 210.65,40.76 208.64,40.69C206.63,40.62 204.7,40.69 202.88,40.76C198.263,40.83 193.878,42.816 190.78,46.24C187.607,49.687 185.88,54.773 185.6,61.5C185.5,62.894 185.547,64.295 185.74,65.68C185.94,67.02 186.13,68.12 186.32,68.99C187.016,72.621 188.627,76.015 191,78.85C192.903,81.063 195.36,82.73 198.12,83.68C200.658,84.519 203.299,85.004 205.97,85.12C207.168,85.211 208.37,85.234 209.57,85.19C210.63,85.19 211.25,85.12 211.44,85.12L211.44,86.56C209.201,86.813 207.117,87.831 205.54,89.44C203.539,91.426 201.853,93.705 200.54,96.2C200.25,96.88 199.7,98.03 198.88,99.66C198.06,101.29 197.06,103.14 195.88,105.2C194.7,107.26 193.46,109.41 192.21,111.61C190.96,113.81 189.81,115.81 188.75,117.61C187.69,119.41 186.88,120.7 186.3,121.61C184.294,124.671 181.761,127.352 178.82,129.53C175.757,131.729 172.312,133.34 168.66,134.28C164.31,135.394 159.83,135.926 155.34,135.86L143.34,135.39L143.34,134.39C145.701,134.435 148.048,134.021 150.25,133.17C152.342,132.311 154.268,131.092 155.94,129.57C158.025,127.67 159.973,125.625 161.77,123.45C163.103,121.823 164.663,119.823 166.45,117.45C168.237,115.077 169.943,112.677 171.57,110.25C173.197,107.85 174.563,105.81 175.67,104.13C176.78,102.45 177.38,101.57 177.47,101.47C179.181,98.953 181.134,96.608 183.3,94.47C185.364,92.307 187.905,90.657 190.72,89.65C185.982,89.43 181.416,87.8 177.61,84.97C174.096,82.273 171.323,78.729 169.55,74.67C167.768,70.735 166.834,66.469 166.81,62.15C166.706,57.954 167.569,53.79 169.33,49.98C170.952,46.648 173.353,43.756 176.33,41.55C179.426,39.295 182.916,37.636 186.62,36.66C190.615,35.565 194.738,35.007 198.88,35L218,35ZM216.56,135.8L205.21,135.8L205.21,134.36L206.94,134.36C209.371,134.392 211.712,133.43 213.42,131.7C215.197,130.047 216.194,127.717 216.16,125.29L216.59,125.29L216.56,135.8ZM233.72,35L233.72,135.8L216.16,135.8L216.16,35L233.72,35ZM233.29,35L244.81,35L244.81,36.44L242.94,36.44C240.528,36.408 238.206,37.375 236.53,39.11C234.797,40.8 233.788,43.1 233.72,45.52L233.29,45.52L233.29,35ZM233.72,125.29C233.786,127.71 234.795,130.011 236.53,131.7C238.207,133.433 240.529,134.396 242.94,134.36L244.81,134.36L244.81,135.8L233.29,135.8L233.29,125.29L233.72,125.29Z" style="fill-rule:nonzero;"/>
    </g>
    <g transform="matrix(1,0,0,1,299.14,121.93)">
        <g transform="matrix(1,0,0,1,-4,0)">
            <g transform="matrix(96,0,0,96,0,0)">
                <path d="M0.388,-0.613C0.439,-0.613 0.485,-0.606 0.528,-0.591C0.571,-0.576 0.608,-0.555 0.639,-0.528C0.67,-0.501 0.695,-0.468 0.712,-0.43C0.729,-0.391 0.737,-0.348 0.737,-0.3C0.737,-0.252 0.729,-0.209 0.712,-0.171C0.695,-0.132 0.67,-0.099 0.639,-0.072C0.608,-0.045 0.571,-0.024 0.528,-0.009C0.485,0.006 0.439,0.013 0.388,0.013C0.337,0.013 0.291,0.006 0.248,-0.009C0.205,-0.024 0.169,-0.045 0.138,-0.072C0.107,-0.099 0.083,-0.132 0.066,-0.171C0.049,-0.209 0.04,-0.252 0.04,-0.3C0.04,-0.348 0.049,-0.391 0.066,-0.43C0.083,-0.468 0.107,-0.501 0.138,-0.528C0.169,-0.555 0.205,-0.576 0.248,-0.591C0.291,-0.606 0.337,-0.613 0.388,-0.613ZM0.388,-0.023C0.431,-0.023 0.47,-0.034 0.503,-0.057C0.536,-0.08 0.563,-0.112 0.582,-0.154C0.6,-0.195 0.61,-0.244 0.61,-0.3C0.61,-0.357 0.6,-0.406 0.582,-0.447C0.563,-0.488 0.536,-0.52 0.503,-0.543C0.47,-0.566 0.431,-0.577 0.388,-0.577C0.345,-0.577 0.306,-0.566 0.273,-0.543C0.24,-0.52 0.214,-0.488 0.195,-0.447C0.176,-0.406 0.167,-0.357 0.167,-0.3C0.167,-0.244 0.176,-0.195 0.195,-0.154C0.214,-0.112 0.24,-0.08 0.273,-0.057C0.306,-0.034 0.345,-0.023 0.388,-0.023Z" style="fill-rule:nonzero;"/>
            </g>
        </g>
        <g transform="matrix(1,0,0,1,58.07,0)">
            <g transform="matrix(96,0,0,96,0,0)">
                <path d="M0.22,-0.6L0.334,-0.6C0.363,-0.6 0.391,-0.597 0.417,-0.591C0.442,-0.585 0.465,-0.576 0.485,-0.563C0.504,-0.55 0.52,-0.533 0.531,-0.512C0.542,-0.491 0.547,-0.466 0.547,-0.437C0.547,-0.412 0.542,-0.388 0.531,-0.365C0.52,-0.341 0.504,-0.321 0.483,-0.305C0.462,-0.288 0.435,-0.278 0.403,-0.274C0.42,-0.269 0.436,-0.257 0.454,-0.24C0.471,-0.223 0.484,-0.206 0.493,-0.191C0.495,-0.188 0.5,-0.18 0.508,-0.169C0.515,-0.157 0.525,-0.143 0.536,-0.128C0.547,-0.112 0.559,-0.096 0.571,-0.081C0.584,-0.064 0.596,-0.05 0.607,-0.04C0.618,-0.029 0.629,-0.022 0.641,-0.017C0.652,-0.012 0.665,-0.01 0.68,-0.01L0.68,-0L0.614,-0C0.578,-0 0.548,-0.003 0.523,-0.01C0.498,-0.017 0.478,-0.027 0.461,-0.041C0.444,-0.055 0.428,-0.072 0.414,-0.093C0.409,-0.1 0.403,-0.11 0.396,-0.123C0.388,-0.136 0.38,-0.149 0.372,-0.163C0.364,-0.176 0.357,-0.189 0.35,-0.202C0.343,-0.214 0.339,-0.223 0.337,-0.23C0.327,-0.25 0.315,-0.265 0.302,-0.276C0.289,-0.287 0.276,-0.292 0.263,-0.293L0.263,-0.302C0.264,-0.302 0.267,-0.302 0.274,-0.302C0.281,-0.301 0.289,-0.301 0.299,-0.302C0.314,-0.303 0.33,-0.305 0.346,-0.309C0.361,-0.313 0.375,-0.322 0.388,-0.335C0.401,-0.348 0.41,-0.369 0.417,-0.397C0.419,-0.402 0.42,-0.409 0.422,-0.417C0.423,-0.425 0.423,-0.434 0.422,-0.444C0.421,-0.467 0.417,-0.486 0.41,-0.501C0.403,-0.516 0.393,-0.527 0.382,-0.536C0.371,-0.545 0.358,-0.551 0.345,-0.555C0.332,-0.559 0.319,-0.561 0.307,-0.562C0.288,-0.563 0.271,-0.563 0.256,-0.563C0.241,-0.562 0.232,-0.562 0.229,-0.562C0.228,-0.563 0.227,-0.566 0.226,-0.572L0.22,-0.6ZM0.23,-0.6L0.23,-0L0.112,-0L0.112,-0.6L0.23,-0.6ZM0.115,-0.063L0.122,-0L0.046,-0L0.046,-0.01L0.058,-0.01C0.073,-0.01 0.086,-0.015 0.097,-0.026C0.107,-0.036 0.112,-0.048 0.113,-0.063L0.115,-0.063ZM0.115,-0.537L0.113,-0.537C0.112,-0.552 0.107,-0.565 0.097,-0.575C0.086,-0.585 0.074,-0.59 0.059,-0.59L0.046,-0.59L0.046,-0.6L0.122,-0.6L0.115,-0.537ZM0.228,-0.063L0.23,-0.063C0.231,-0.048 0.237,-0.035 0.248,-0.025C0.259,-0.015 0.272,-0.01 0.286,-0.01L0.297,-0.01L0.298,-0L0.221,-0L0.228,-0.063Z" style="fill-rule:nonzero;"/>
            </g>
        </g>
    </g>
</svg>
