<svg id="Layer_1" data-name="Layer 1" xmlns="http://www.w3.org/2000/svg" viewBox="0 0 427.5 175.97"><defs><style>.cls-1{font-size:144px;}.cls-1,.cls-2,.cls-3{font-family:Cinzel-SemiBold, Cinzel;font-weight:600;}.cls-2,.cls-3{font-size:96px;}.cls-2{letter-spacing:-0.05em;}.cls-3{letter-spacing:-0.12em;}.cls-4{letter-spacing:-0.11em;}</style></defs><text class="cls-1" transform="translate(208.79 122.4)">R</text><text class="cls-2" transform="translate(0.1 121.93)">Mi</text><path d="M218,35c-.48,1.83-.84,3.22-1.08,4.18s-.36,1.49-.36,1.58h-2.67c-1.48,0-3.24,0-5.25-.07s-3.94,0-5.76.07a16.66,16.66,0,0,0-12.1,5.48q-4.76,5.17-5.18,15.26a20,20,0,0,0,.14,4.18c.2,1.34.39,2.44.58,3.31A21.73,21.73,0,0,0,191,78.85a16.45,16.45,0,0,0,7.12,4.83,29,29,0,0,0,7.85,1.44,32.11,32.11,0,0,0,3.6.07c1.06,0,1.68-.07,1.87-.07v1.44a9.8,9.8,0,0,0-5.9,2.88,27.68,27.68,0,0,0-5,6.76c-.29.68-.84,1.83-1.66,3.46s-1.82,3.48-3,5.54-2.42,4.21-3.67,6.41-2.4,4.2-3.46,6-1.87,3.09-2.45,4a31,31,0,0,1-7.48,7.92,30.44,30.44,0,0,1-10.16,4.75,50.7,50.7,0,0,1-13.32,1.58l-12-.47v-1a18.2,18.2,0,0,0,6.91-1.22,19.4,19.4,0,0,0,5.69-3.6,59.89,59.89,0,0,0,5.83-6.12q2-2.44,4.68-6t5.12-7.2q2.44-3.6,4.1-6.12c1.11-1.68,1.71-2.56,1.8-2.66a46.82,46.82,0,0,1,5.83-7,19.19,19.19,0,0,1,7.42-4.82,23.83,23.83,0,0,1-13.11-4.68,26.2,26.2,0,0,1-8.06-10.3,30.76,30.76,0,0,1-2.74-12.52,27.39,27.39,0,0,1,2.52-12.17,23.05,23.05,0,0,1,7-8.43,30.81,30.81,0,0,1,10.29-4.89A46.69,46.69,0,0,1,198.88,35Zm-1.44,100.8H205.21v-1.44h1.73a8.94,8.94,0,0,0,6.48-2.66,8.59,8.59,0,0,0,2.74-6.41h.43ZM233.72,35V135.8H216.16V35Zm-.43,0h11.52v1.44h-1.87a8.75,8.75,0,0,0-6.41,2.67,9.32,9.32,0,0,0-2.81,6.41h-.43Zm.43,90.29a9.3,9.3,0,0,0,2.81,6.41,8.74,8.74,0,0,0,6.41,2.66h1.87v1.44H233.29V125.29Z" transform="translate(-27.9 -13.41)"/><text class="cls-3" transform="translate(299.14 121.93)">o<tspan class="cls-4" x="63.07" y="0">r</tspan></text></svg>